# xmcd CD database file
#
# Track frame offsets:
#	150
#	4737
#	26055
#	45350
#	64200
#	81540
#	90527
#	111995
#	133882
#	149620
#
# Disc length: 2227 seconds
#
# Revision: 0
# Processed by: cddbd v1.5PL3 Copyright (c) Steve Scherf et al.
# Submitted via: CDex 1.51
#
DISCID=8d08b10a
DTITLE=東京ミュウミュウ - 東京ミュウミュウ スーパーベストヒット -東京ミュウミュウサイド-
DYEAR=2003
DGENRE=Anime
TTITLE0=Introduction 〜東京ミュウミュウ メタモルフォーゼ！！〜
TTITLE1=キラメキの海を越えて
TTITLE2=Blue Bird
TTITLE3=海を見ていた
TTITLE4=YES YES YES!
TTITLE5=ドゥビドゥワDANCIN' NIGHT
TTITLE6=楽園を探して…
TTITLE7=グライダー(New Edition)
TTITLE8=恋はア・ラ・モード
TTITLE9=my sweet heart(Live Version
EXTD=YEAR: 2003
EXTT0=
EXTT1=
EXTT2=
EXTT3=
EXTT4=
EXTT5=
EXTT6=
EXTT7=
EXTT8=
EXTT9=
PLAYORDER=
